{
	"asset":{
		"generator":"Khronos glTF Blender I/O v4.0.44",
		"version":"2.0"
	},
	"scene":0,
	"scenes":[
		{
			"name":"Scene",
			"nodes":[
				1
			]
		}
	],
	"nodes":[
		{
			"mesh":0,
			"name":"Plane",
			"rotation":[
				0.49999314546585083,
				0.49999314546585083,
				-0.500006914138794,
				0.5000068545341492
			],
			"scale":[
				0.1998886615037918,
				0.1998886615037918,
				0.1998886615037918
			],
			"translation":[
				0.00948371272534132,
				0,
				0
			]
		},
		{
			"children":[
				0
			],
			"mesh":1,
			"name":"high_poly",
			"scale":[
				8.530442237854004,
				8.530442237854004,
				8.530442237854004
			]
		}
	],
	"materials":[
		{
			"doubleSided":true,
			"name":"Material.001",
			"pbrMetallicRoughness":{
				"baseColorTexture":{
					"index":0
				},
				"metallicFactor":0,
				"roughnessFactor":0.004545450210571289
			}
		},
		{
			"doubleSided":true,
			"name":"Material_0",
			"pbrMetallicRoughness":{
				"baseColorTexture":{
					"index":1
				},
				"metallicRoughnessTexture":{
					"index":2
				}
			}
		}
	],
	"meshes":[
		{
			"name":"Plane",
			"primitives":[
				{
					"attributes":{
						"POSITION":0,
						"NORMAL":1,
						"TEXCOORD_0":2
					},
					"indices":3,
					"material":0
				}
			]
		},
		{
			"name":"geometry_0",
			"primitives":[
				{
					"attributes":{
						"POSITION":4,
						"NORMAL":5,
						"TEXCOORD_0":6
					},
					"indices":7,
					"material":1
				}
			]
		}
	],
	"textures":[
		{
			"sampler":0,
			"source":0
		},
		{
			"sampler":0,
			"source":1
		},
		{
			"sampler":0,
			"source":2
		}
	],
	"images":[
		{
			"mimeType":"image/jpeg",
			"name":"vecteezy_canvas-cotton-textures_2790219",
			"uri":"vecteezy_canvas-cotton-textures_2790219.jpg"
		},
		{
			"mimeType":"image/jpeg",
			"name":"Image_0",
			"uri":"Image_0.jpg"
		},
		{
			"mimeType":"image/jpeg",
			"name":"Image_1",
			"uri":"Image_1.jpg"
		}
	],
	"accessors":[
		{
			"bufferView":0,
			"componentType":5126,
			"count":4,
			"max":[
				1,
				0,
				1
			],
			"min":[
				-1,
				0,
				-1
			],
			"type":"VEC3"
		},
		{
			"bufferView":1,
			"componentType":5126,
			"count":4,
			"type":"VEC3"
		},
		{
			"bufferView":2,
			"componentType":5126,
			"count":4,
			"type":"VEC2"
		},
		{
			"bufferView":3,
			"componentType":5123,
			"count":6,
			"type":"SCALAR"
		},
		{
			"bufferView":4,
			"componentType":5126,
			"count":22263,
			"max":[
				0.0192974004894495,
				0.2204858660697937,
				0.2172183394432068
			],
			"min":[
				-0.02705627866089344,
				-0.21570733189582825,
				-0.21314403414726257
			],
			"type":"VEC3"
		},
		{
			"bufferView":5,
			"componentType":5126,
			"count":22263,
			"type":"VEC3"
		},
		{
			"bufferView":6,
			"componentType":5126,
			"count":22263,
			"type":"VEC2"
		},
		{
			"bufferView":7,
			"componentType":5123,
			"count":109122,
			"type":"SCALAR"
		}
	],
	"bufferViews":[
		{
			"buffer":0,
			"byteLength":48,
			"byteOffset":0,
			"target":34962
		},
		{
			"buffer":0,
			"byteLength":48,
			"byteOffset":48,
			"target":34962
		},
		{
			"buffer":0,
			"byteLength":32,
			"byteOffset":96,
			"target":34962
		},
		{
			"buffer":0,
			"byteLength":12,
			"byteOffset":128,
			"target":34963
		},
		{
			"buffer":0,
			"byteLength":267156,
			"byteOffset":140,
			"target":34962
		},
		{
			"buffer":0,
			"byteLength":267156,
			"byteOffset":267296,
			"target":34962
		},
		{
			"buffer":0,
			"byteLength":178104,
			"byteOffset":534452,
			"target":34962
		},
		{
			"buffer":0,
			"byteLength":218244,
			"byteOffset":712556,
			"target":34963
		}
	],
	"samplers":[
		{
			"magFilter":9729,
			"minFilter":9987
		}
	],
	"buffers":[
		{
			"byteLength":930800,
			"uri":"canvas.bin"
		}
	]
}
