{
	"asset":{
		"generator":"Khronos glTF Blender I/O v4.0.44",
		"version":"2.0"
	},
	"extensionsUsed":[
		"KHR_materials_specular"
	],
	"scene":0,
	"scenes":[
		{
			"name":"Scene",
			"nodes":[
				0,
				6
			]
		}
	],
	"nodes":[
		{
			"mesh":0,
			"name":"chest",
			"rotation":[
				-0.7071069478988647,
				0,
				0,
				0.7071066498756409
			],
			"scale":[
				3.5756003856658936,
				3.5756006240844727,
				3.5756006240844727
			],
			"translation":[
				-1.5420455932617188,
				-4.835169792175293,
				0
			]
		},
		{
			"mesh":1,
			"name":"Object_2.001"
		},
		{
			"mesh":2,
			"name":"Object_3.001"
		},
		{
			"mesh":3,
			"name":"Object_4.001"
		},
		{
			"mesh":4,
			"name":"Object_5.001"
		},
		{
			"children":[
				1,
				2,
				3,
				4
			],
			"name":"hoodie.obj.cleaner.materialmerger.gles.001"
		},
		{
			"children":[
				5
			],
			"name":"Sketchfab_model.001",
			"rotation":[
				-0.70710688829422,
				0,
				0,
				0.7071066498756409
			],
			"scale":[
				3.5755999088287354,
				3.5756003856658936,
				3.5756003856658936
			],
			"translation":[
				0,
				-4.835169792175293,
				0
			]
		}
	],
	"materials":[
		{
			"doubleSided":true,
			"extensions":{
				"KHR_materials_specular":{
					"specularFactor":0
				}
			},
			"name":"Material238904.001",
			"normalTexture":{
				"index":0
			},
			"pbrMetallicRoughness":{
				"baseColorTexture":{
					"index":1
				},
				"metallicRoughnessTexture":{
					"index":2
				}
			}
		},
		{
			"doubleSided":true,
			"extensions":{
				"KHR_materials_specular":{
					"specularFactor":0.07771452516317368
				}
			},
			"name":"Material238904.002",
			"normalTexture":{
				"index":3
			},
			"pbrMetallicRoughness":{
				"baseColorTexture":{
					"index":4
				},
				"metallicRoughnessTexture":{
					"index":5
				}
			}
		}
	],
	"meshes":[
		{
			"name":"Object_0.002",
			"primitives":[
				{
					"attributes":{
						"POSITION":0,
						"NORMAL":1,
						"TEXCOORD_0":2
					},
					"indices":3,
					"material":0
				}
			]
		},
		{
			"name":"Object_0.003",
			"primitives":[
				{
					"attributes":{
						"POSITION":4,
						"NORMAL":5,
						"TEXCOORD_0":6
					},
					"indices":7,
					"material":1
				}
			]
		},
		{
			"name":"Object_1.001",
			"primitives":[
				{
					"attributes":{
						"POSITION":8,
						"NORMAL":9,
						"TEXCOORD_0":10
					},
					"indices":11,
					"material":1
				}
			]
		},
		{
			"name":"Object_2.001",
			"primitives":[
				{
					"attributes":{
						"POSITION":12,
						"NORMAL":13,
						"TEXCOORD_0":14
					},
					"indices":15,
					"material":1
				}
			]
		},
		{
			"name":"Object_3.001",
			"primitives":[
				{
					"attributes":{
						"POSITION":16,
						"NORMAL":17,
						"TEXCOORD_0":18
					},
					"indices":19,
					"material":1
				}
			]
		}
	],
	"textures":[
		{
			"sampler":0,
			"source":0
		},
		{
			"sampler":0,
			"source":1
		},
		{
			"sampler":0,
			"source":2
		},
		{
			"sampler":0,
			"source":0
		},
		{
			"sampler":0,
			"source":3
		},
		{
			"sampler":0,
			"source":2
		}
	],
	"images":[
		{
			"mimeType":"image/png",
			"name":"Material238904.005_normal",
			"uri":"Material238904_005_normal.png"
		},
		{
			"mimeType":"image/png",
			"name":"image (12)",
			"uri":"image%2012.png"
		},
		{
			"mimeType":"image/png",
			"name":"Material238904.005_metallicRoughness",
			"uri":"Material238904_005_metallicRoughness.png"
		},
		{
			"mimeType":"image/png",
			"name":"Material238904.005_baseColor",
			"uri":"Material238904_005_baseColor.png"
		}
	],
	"accessors":[
		{
			"bufferView":0,
			"componentType":5126,
			"count":4707,
			"max":[
				0.5636794567108154,
				0.1198360025882721,
				1.5445120334625244
			],
			"min":[
				0.48563745617866516,
				-0.11348500102758408,
				1.2600860595703125
			],
			"type":"VEC3"
		},
		{
			"bufferView":1,
			"componentType":5126,
			"count":4707,
			"type":"VEC3"
		},
		{
			"bufferView":2,
			"componentType":5126,
			"count":4707,
			"type":"VEC2"
		},
		{
			"bufferView":3,
			"componentType":5123,
			"count":27369,
			"type":"SCALAR"
		},
		{
			"bufferView":4,
			"componentType":5126,
			"count":65596,
			"max":[
				0.14519000053405762,
				0.24437400698661804,
				1.8981679677963257
			],
			"min":[
				-0.02429099939763546,
				-0.23339000344276428,
				1.0753250122070312
			],
			"type":"VEC3"
		},
		{
			"bufferView":5,
			"componentType":5126,
			"count":65596,
			"type":"VEC3"
		},
		{
			"bufferView":6,
			"componentType":5126,
			"count":65596,
			"type":"VEC2"
		},
		{
			"bufferView":7,
			"componentType":5125,
			"count":381363,
			"type":"SCALAR"
		},
		{
			"bufferView":8,
			"componentType":5126,
			"count":65553,
			"max":[
				0.08178800344467163,
				0.3043070137500763,
				1.898231029510498
			],
			"min":[
				-0.15285399556159973,
				-0.30144399404525757,
				0.9607589840888977
			],
			"type":"VEC3"
		},
		{
			"bufferView":9,
			"componentType":5126,
			"count":65553,
			"type":"VEC3"
		},
		{
			"bufferView":10,
			"componentType":5126,
			"count":65553,
			"type":"VEC2"
		},
		{
			"bufferView":11,
			"componentType":5125,
			"count":368391,
			"type":"SCALAR"
		},
		{
			"bufferView":12,
			"componentType":5126,
			"count":65559,
			"max":[
				0.08208400011062622,
				0.3034690022468567,
				1.9092379808425903
			],
			"min":[
				-0.1538279950618744,
				-0.29927700757980347,
				0.9652230143547058
			],
			"type":"VEC3"
		},
		{
			"bufferView":13,
			"componentType":5126,
			"count":65559,
			"type":"VEC3"
		},
		{
			"bufferView":14,
			"componentType":5126,
			"count":65559,
			"type":"VEC2"
		},
		{
			"bufferView":15,
			"componentType":5125,
			"count":370419,
			"type":"SCALAR"
		},
		{
			"bufferView":16,
			"componentType":5126,
			"count":51402,
			"max":[
				0.13579699397087097,
				0.30003198981285095,
				1.6316059827804565
			],
			"min":[
				-0.14729799330234528,
				-0.29924899339675903,
				0.9628959894180298
			],
			"type":"VEC3"
		},
		{
			"bufferView":17,
			"componentType":5126,
			"count":51402,
			"type":"VEC3"
		},
		{
			"bufferView":18,
			"componentType":5126,
			"count":51402,
			"type":"VEC2"
		},
		{
			"bufferView":19,
			"componentType":5123,
			"count":275775,
			"type":"SCALAR"
		}
	],
	"bufferViews":[
		{
			"buffer":0,
			"byteLength":56484,
			"byteOffset":0,
			"target":34962
		},
		{
			"buffer":0,
			"byteLength":56484,
			"byteOffset":56484,
			"target":34962
		},
		{
			"buffer":0,
			"byteLength":37656,
			"byteOffset":112968,
			"target":34962
		},
		{
			"buffer":0,
			"byteLength":54738,
			"byteOffset":150624,
			"target":34963
		},
		{
			"buffer":0,
			"byteLength":787152,
			"byteOffset":205364,
			"target":34962
		},
		{
			"buffer":0,
			"byteLength":787152,
			"byteOffset":992516,
			"target":34962
		},
		{
			"buffer":0,
			"byteLength":524768,
			"byteOffset":1779668,
			"target":34962
		},
		{
			"buffer":0,
			"byteLength":1525452,
			"byteOffset":2304436,
			"target":34963
		},
		{
			"buffer":0,
			"byteLength":786636,
			"byteOffset":3829888,
			"target":34962
		},
		{
			"buffer":0,
			"byteLength":786636,
			"byteOffset":4616524,
			"target":34962
		},
		{
			"buffer":0,
			"byteLength":524424,
			"byteOffset":5403160,
			"target":34962
		},
		{
			"buffer":0,
			"byteLength":1473564,
			"byteOffset":5927584,
			"target":34963
		},
		{
			"buffer":0,
			"byteLength":786708,
			"byteOffset":7401148,
			"target":34962
		},
		{
			"buffer":0,
			"byteLength":786708,
			"byteOffset":8187856,
			"target":34962
		},
		{
			"buffer":0,
			"byteLength":524472,
			"byteOffset":8974564,
			"target":34962
		},
		{
			"buffer":0,
			"byteLength":1481676,
			"byteOffset":9499036,
			"target":34963
		},
		{
			"buffer":0,
			"byteLength":616824,
			"byteOffset":10980712,
			"target":34962
		},
		{
			"buffer":0,
			"byteLength":616824,
			"byteOffset":11597536,
			"target":34962
		},
		{
			"buffer":0,
			"byteLength":411216,
			"byteOffset":12214360,
			"target":34962
		},
		{
			"buffer":0,
			"byteLength":551550,
			"byteOffset":12625576,
			"target":34963
		}
	],
	"samplers":[
		{
			"magFilter":9729,
			"minFilter":9987
		}
	],
	"buffers":[
		{
			"byteLength":13177128,
			"uri":"chest.bin"
		}
	]
}
