{
	"asset":{
		"generator":"Khronos glTF Blender I/O v4.0.44",
		"version":"2.0"
	},
	"scene":0,
	"scenes":[
		{
			"name":"Scene",
			"nodes":[
				4
			]
		}
	],
	"nodes":[
		{
			"mesh":0,
			"name":"poster_mesh",
			"rotation":[
				1,
				0,
				0,
				1.545349368825555e-05
			],
			"scale":[
				1,
				1.5199999809265137,
				1
			]
		},
		{
			"children":[
				0
			],
			"name":"Plane",
			"rotation":[
				-0.4999999701976776,
				0.5,
				-0.5,
				0.5
			],
			"scale":[
				153.70372009277344,
				100,
				100.00000762939453
			]
		},
		{
			"children":[
				1
			],
			"name":"RootNode"
		},
		{
			"children":[
				2
			],
			"name":"poster",
			"rotation":[
				0.70710688829422,
				0,
				0,
				0.7071066498756409
			],
			"scale":[
				0.010000000707805157,
				0.010000001639127731,
				0.010000001639127731
			]
		},
		{
			"children":[
				3
			],
			"name":"Sketchfab_model",
			"rotation":[
				-0.70710688829422,
				0,
				0,
				0.7071066498756409
			],
			"scale":[
				10.41185188293457,
				10.411852836608887,
				10.411852836608887
			]
		}
	],
	"materials":[
		{
			"doubleSided":true,
			"name":"Material.002",
			"pbrMetallicRoughness":{
				"baseColorTexture":{
					"index":0
				},
				"metallicFactor":0,
				"roughnessFactor":0.6870236396789551
			}
		}
	],
	"meshes":[
		{
			"name":"Plane_Material.002_0",
			"primitives":[
				{
					"attributes":{
						"POSITION":0,
						"NORMAL":1,
						"TEXCOORD_0":2
					},
					"indices":3,
					"material":0
				}
			]
		}
	],
	"textures":[
		{
			"sampler":0,
			"source":0
		}
	],
	"images":[
		{
			"mimeType":"image/jpeg",
			"name":"white-texture",
			"uri":"white-texture.jpg"
		}
	],
	"accessors":[
		{
			"bufferView":0,
			"componentType":5126,
			"count":333,
			"max":[
				0.13501225411891937,
				0.13500438630580902,
				0.005724626127630472
			],
			"min":[
				-0.13500559329986572,
				-0.1350051760673523,
				-0.005419353023171425
			],
			"type":"VEC3"
		},
		{
			"bufferView":1,
			"componentType":5126,
			"count":333,
			"type":"VEC3"
		},
		{
			"bufferView":2,
			"componentType":5126,
			"count":333,
			"type":"VEC2"
		},
		{
			"bufferView":3,
			"componentType":5123,
			"count":1734,
			"type":"SCALAR"
		}
	],
	"bufferViews":[
		{
			"buffer":0,
			"byteLength":3996,
			"byteOffset":0,
			"target":34962
		},
		{
			"buffer":0,
			"byteLength":3996,
			"byteOffset":3996,
			"target":34962
		},
		{
			"buffer":0,
			"byteLength":2664,
			"byteOffset":7992,
			"target":34962
		},
		{
			"buffer":0,
			"byteLength":3468,
			"byteOffset":10656,
			"target":34963
		}
	],
	"samplers":[
		{
			"magFilter":9729,
			"minFilter":9987
		}
	],
	"buffers":[
		{
			"byteLength":14124,
			"uri":"poster.bin"
		}
	]
}
